# xmcd
#
# Track frame offsets: 
#        150
#        17515
#        32842
#        52265
#        75995
#        91550
#        116187
#        128022
#        143685
#        158872
#
# Disc length: 2217 seconds
#
# Revision: 1
# Processed by: cddbd v1.5.2PL0 Copyright (c) Steve Scherf et al.
# Submitted via: ExactAudioCopyFreeDBPlugin 1.0
#
DISCID=7408a70a
DTITLE=Various Artist - Verve Master Edition
DYEAR=1900
DGENRE=Jazz
TTITLE0=Ella Fitzgerald - Too Darn Hot
TTITLE1=Count Basie - What Am I Here For?
TTITLE2=Getz/Gilberto - Corcovado
TTITLE3=Jimmy Smith/Wes Montgomery - OGD
TTITLE4=Parker/Gillespie - An Oscar for Treadwell
TTITLE5=Ellington/Hodges - Royal Garden Blues
TTITLE6=Ben Webster - How Deep is the Ocean?
TTITLE7=Lester Young - On the Sunny Side of the Street
TTITLE8=Kenny Burell - Loie
TTITLE9=Tony Scott - To Drift like Clouds
EXTD=
EXTT0=
EXTT1=
EXTT2=
EXTT3=
EXTT4=
EXTT5=
EXTT6=
EXTT7=
EXTT8=
EXTT9=
PLAYORDER=
